<svg xmlns="http://www.w3.org/2000/svg" fill="none" viewBox="0 0 16 16" height="16" width="16" id="Sign-At--Streamline-Core"><desc>Sign At Streamline Icon: https://streamlinehq.com</desc><g id="sign-at--mail-email-at-sign-read-address"><path id="Union" fill="#c5f82a" fill-rule="evenodd" d="M8.00488 0.03421188571428571V0.03417965714285714l-0.0074399999999999996 0.00002297142857142857C6.819931428571428 0.03783931428571428 5.657874285714286 0.30248457142857144 4.5949028571428565 0.8090902857142857 3.5319314285714283 1.3156914285714285 2.594502857142857 2.0516571428571426 1.8500685714285714 2.9640114285714287 1.105648 3.8763542857142856 0.5727474285714286 4.9424 0.2897302857142857 6.085405714285714 0.006713657142857142 7.228399999999999 -0.01938102857142857 8.419931428571429 0.21332457142857142 9.57422857142857 0.4460308571428571 10.728525714285714 0.9317497142857143 11.816914285714285 1.6355199999999999 12.760914285714286c0.7037714285714286 0.9441142857142856 1.60808 1.7203428571428572 2.6478514285714287 2.273028571428571 1.0397714285714286 0.5526857142857142 2.1891314285714283 0.8678857142857141 3.36536 0.9230857142857142 1.1762285714285712 0.0552 2.3500571428571426 -0.1510857142857143 3.437005714285714 -0.6038857142857142 0.4370057142857143 -0.18205714285714283 0.6436342857142857 -0.684 0.46157714285714285 -1.1209142857142858 -0.18209142857142857 -0.43702857142857143 -0.6839314285714285 -0.6436571428571428 -1.1209028571428572 -0.46159999999999995 -0.8530285714285714 0.3554285714285714 -1.7742399999999998 0.5173714285714285 -2.6973371428571427 0.47405714285714284 -0.9230971428571428 -0.043314285714285715 -1.8251085714285713 -0.29074285714285714 -2.6411199999999995 -0.7244571428571428 -0.816 -0.4337142857142857 -1.525702857142857 -1.0429714285714284 -2.078022857142857 -1.783885714285714 -0.5523199999999999 -0.74088 -0.9335085714285714 -1.5950171428571427 -1.1161257142857142 -2.5009028571428567 -0.18262857142857142 -0.9058857142857142 -0.16214857142857142 -1.8409942857142856 0.05995428571428571 -2.7380114285714288 0.2221142857142857 -0.8970171428571427 0.6403314285714284 -1.7336457142857142 1.2245485714285713 -2.4496571428571428 0.5842285714285714 -0.7159999999999999 1.31992 -1.2935771428571428 2.154125714285714 -1.6911657142857142 0.8330971428571429 -0.39705142857142856 1.7437485714285712 -0.6047085714285715 2.666582857142857 -0.6081142857142857 1.100742857142857 0.0068000000000000005 2.1808457142857143 0.2996114285714286 3.134308571428571 0.84976 0.95456 0.5507657142857143 1.749302857142857 1.3404685714285713 2.3062171428571427 2.2914742857142856l-0.00011428571428571428 0.00004571428571428572 0.006514285714285714 0.010799999999999999c1.3700571428571429 2.26272 0.6978285714285715 4.01648 -0.10834285714285713 4.7987085714285715 -0.44617142857142855 0.43292571428571425 -0.8114285714285714 0.47661714285714285 -0.9229714285714286 0.4508 -0.028342857142857142 -0.00656 -0.057828571428571424 -0.016982857142857143 -0.09725714285714285 -0.08125714285714285 -0.05028571428571428 -0.08189714285714285 -0.12457142857142857 -0.2734285714285714 -0.12457142857142857 -0.6470628571428572V8.000022857142858l0 -0.007508571428571429c-0.0009142857142857143 -0.5466857142857142 -0.11017142857142856 -1.0877828571428572 -0.32148571428571426 -1.5920457142857143 -0.21222857142857143 -0.5066057142857142 -0.5231885714285713 -0.9658742857142857 -0.9147885714285714 -1.3510514285714283 -0.3915885714285714 -0.3851657142857142 -0.8559428571428571 -0.6885257142857143 -1.3659771428571428 -0.8923771428571429 -0.5100457142857143 -0.20386285714285715 -1.0555657142857142 -0.3041371428571429 -1.6047657142857141 -0.29498285714285716 -0.8153599999999999 0.013600000000000001 -1.6085257142857141 0.2677942857142857 -2.2798971428571426 0.7306742857142857 -0.6713714285714286 0.46287999999999996 -1.1910057142857142 1.1138057142857143 -1.4936571428571428 1.8710399999999998 -0.30265142857142857 0.7572228571428571 -0.3748228571428571 1.5869942857142856 -0.20745142857142854 2.3851085714285714s0.5668228571428572 1.5289828571428572 1.1481942857142855 2.100822857142857c0.5813714285714285 0.5717828571428571 1.318742857142857 0.9592114285714285 2.1195085714285713 1.1132685714285715 0.8007771428571427 0.15417142857142854 1.6292342857142856 0.06834285714285714 2.3813599999999995 -0.24674285714285715 0.45825142857142853 -0.192 0.8757142857142857 -0.46393142857142855 1.2341485714285714 -0.8006399999999999 0.2749942857142857 0.4207542857142857 0.6750971428571427 0.6970971428571427 1.1401257142857142 0.80464 0.912 0.21097142857142853 1.8461714285714284 -0.2531428571428571 2.5032 -0.8906171428571429 1.3994285714285712 -1.357737142857143 2.1489142857142856 -3.9925599999999997 0.3843428571428571 -6.9115657142857145 -0.7070857142857143 -1.205302857142857 -1.7151999999999998 -2.2062399999999998 -2.9255999999999998 -2.904641142857143C10.777828571428572 0.41395199999999993 9.404422857142857 0.04203097142857143 8.00488 0.03421188571428571ZM8.014354285714285 5.576114285714286c0.32167999999999997 -0.005371428571428571 0.6412114285714285 0.05337142857142857 0.9399542857142856 0.17276571428571427 0.29874285714285714 0.11940571428571428 0.5707314285714286 0.2970971428571429 0.8000914285714286 0.5226971428571429 0.22937142857142856 0.22561142857142857 0.41153142857142855 0.49461714285714287 0.5358514285714285 0.7913485714285714 0.12432 0.29673142857142853 0.18833142857142854 0.6152457142857143 0.18828571428571428 0.9369714285714285 -0.00006857142857142857 0.47764571428571423 -0.14125714285714286 0.9446285714285714 -0.40584 1.3422857142857143 -0.2645828571428571 0.39766857142857137 -0.6407771428571428 0.7082971428571428 -1.0813142857142857 0.89288 -0.4405371428571428 0.18457142857142855 -0.9257942857142856 0.23488 -1.394822857142857 0.14458285714285715 -0.46903999999999996 -0.09029714285714285 -0.9009371428571429 -0.3171657142857143 -1.241462857142857 -0.6521028571428572 -0.34052571428571426 -0.33494857142857143 -0.5744914285714285 -0.7630399999999999 -0.6725257142857143 -1.2305142857142857 -0.0980342857142857 -0.46747428571428573 -0.05577142857142857 -0.9534971428571428 0.12150857142857142 -1.3970285714285713 0.17726857142857141 -0.4435314285714285 0.48163428571428574 -0.8248 0.8748799999999999 -1.0959199999999998 0.3932342857142857 -0.27111999999999997 0.8578171428571428 -0.42001142857142854 1.3353942857142855 -0.4279657142857143Z" clip-rule="evenodd" stroke-width="1"></path></g></svg>